<svg width="1280" height="640" viewBox="0 0 1280 640" fill="none" xmlns="http://www.w3.org/2000/svg">
<g clip-path="url(#clip0_1_2)">
<rect width="1280" height="640" fill="url(#paint0_radial_1_2)"/>
<path d="M269.505 468.395C258.96 469.445 248.85 470 240.12 470C188.94 470 120 454.97 120 430.79V400.19C151.755 420.32 197.55 426.89 240.12 426.89C245.205 426.89 250.335 426.785 255.45 426.575C254.55 416.915 254.91 407.375 257.385 396.29C251.265 396.68 245.43 396.89 240.12 396.89C188.94 396.89 120 381.875 120 357.695V322.235C151.74 342.35 197.55 348.935 240.12 348.935C255.435 348.935 271.14 348.035 286.455 345.995C315.105 319.505 355.5 313.1 390 327.53V205.43C390 155 300.525 140 240.12 140C176.745 140 90 155.015 90 205.415V434.57C90 485 183.135 500 240.12 500C256.335 500 275.505 498.71 294.645 495.785C284.61 488.36 276.06 479.06 269.505 468.395V468.395ZM240.12 170C294.69 170 360 183.635 360 205.415C360 229.13 283.44 240.83 240.12 240.83C188.94 240.845 120 227.255 120 205.415C120 181.655 192.18 170 240.12 170V170ZM120 244.145C151.755 264.275 197.55 270.845 240.12 270.845C282.555 270.845 328.26 264.275 360 244.145V279.725C360 306.02 283.035 318.935 240.12 318.935C188.73 318.92 120 303.83 120 279.71V244.145V244.145ZM352.5 350C315.255 350 285 380.225 285 417.5C285 454.775 315.255 485 352.5 485C389.745 485 420 454.775 420 417.5C420 380.225 389.745 350 352.5 350ZM335.94 460.145L353.595 421.97L327.51 429.05L349.5 383.54L370.305 377.645L356.565 406.52L387.51 398.165L335.94 460.145V460.145Z" fill="white"/>
<path d="M456.74 268.909V378H427.336V268.909H456.74ZM511.139 379.491C502.261 379.491 494.661 377.734 488.34 374.218C482.019 370.667 477.172 365.731 473.798 359.41C470.425 353.053 468.738 345.685 468.738 337.304C468.738 328.923 470.425 321.572 473.798 315.251C477.172 308.895 482.019 303.959 488.34 300.443C494.661 296.892 502.261 295.116 511.139 295.116C520.017 295.116 527.616 296.892 533.937 300.443C540.258 303.959 545.105 308.895 548.479 315.251C551.852 321.572 553.539 328.923 553.539 337.304C553.539 345.685 551.852 353.053 548.479 359.41C545.105 365.731 540.258 370.667 533.937 374.218C527.616 377.734 520.017 379.491 511.139 379.491ZM511.352 357.759C513.838 357.759 515.986 356.924 517.797 355.255C519.608 353.586 521.011 351.207 522.005 348.117C522.999 345.028 523.497 341.352 523.497 337.091C523.497 332.794 522.999 329.119 522.005 326.065C521.011 322.975 519.608 320.596 517.797 318.927C515.986 317.258 513.838 316.423 511.352 316.423C508.724 316.423 506.469 317.258 504.587 318.927C502.705 320.596 501.267 322.975 500.272 326.065C499.278 329.119 498.781 332.794 498.781 337.091C498.781 341.352 499.278 345.028 500.272 348.117C501.267 351.207 502.705 353.586 504.587 355.255C506.469 356.924 508.724 357.759 511.352 357.759ZM604.889 379.491C596.011 379.491 588.411 377.734 582.09 374.218C575.769 370.667 570.922 365.731 567.548 359.41C564.175 353.053 562.488 345.685 562.488 337.304C562.488 328.923 564.175 321.572 567.548 315.251C570.922 308.895 575.769 303.959 582.09 300.443C588.411 296.892 596.011 295.116 604.889 295.116C612.914 295.116 619.857 296.572 625.716 299.484C631.611 302.361 636.174 306.445 639.406 311.736C642.637 316.991 644.271 323.17 644.306 330.273H617.034C616.643 325.976 615.4 322.709 613.305 320.472C611.245 318.199 608.582 317.062 605.315 317.062C602.758 317.062 600.521 317.808 598.603 319.3C596.686 320.756 595.194 322.975 594.129 325.958C593.063 328.906 592.531 332.616 592.531 337.091C592.531 341.565 593.063 345.294 594.129 348.277C595.194 351.224 596.686 353.444 598.603 354.935C600.521 356.391 602.758 357.119 605.315 357.119C607.481 357.119 609.399 356.622 611.068 355.628C612.737 354.598 614.086 353.107 615.116 351.153C616.181 349.165 616.82 346.75 617.034 343.909H644.306C644.2 351.118 642.548 357.403 639.352 362.766C636.156 368.092 631.629 372.212 625.769 375.124C619.945 378.036 612.985 379.491 604.889 379.491ZM679.236 379.278C674.016 379.278 669.4 378.426 665.387 376.722C661.409 374.982 658.284 372.354 656.012 368.838C653.739 365.322 652.603 360.848 652.603 355.415C652.603 350.94 653.366 347.123 654.893 343.962C656.42 340.766 658.551 338.156 661.285 336.132C664.02 334.108 667.198 332.563 670.82 331.498C674.478 330.433 678.419 329.74 682.645 329.42C687.226 329.065 690.902 328.639 693.672 328.142C696.477 327.609 698.501 326.881 699.744 325.958C700.987 324.999 701.608 323.739 701.608 322.176V321.963C701.608 319.832 700.792 318.199 699.158 317.062C697.525 315.926 695.429 315.358 692.873 315.358C690.067 315.358 687.777 315.979 686.001 317.222C684.261 318.43 683.213 320.294 682.858 322.815H655.799C656.154 317.844 657.734 313.263 660.539 309.072C663.38 304.847 667.517 301.473 672.951 298.952C678.384 296.395 685.167 295.116 693.299 295.116C699.158 295.116 704.414 295.809 709.066 297.194C713.718 298.543 717.677 300.443 720.944 302.893C724.211 305.308 726.697 308.149 728.402 311.416C730.142 314.648 731.012 318.163 731.012 321.963V378H703.526V366.494H702.887C701.253 369.548 699.265 372.016 696.921 373.898C694.613 375.781 691.967 377.148 688.984 378C686.037 378.852 682.787 379.278 679.236 379.278ZM688.824 360.741C691.061 360.741 693.157 360.28 695.11 359.357C697.098 358.433 698.714 357.102 699.957 355.362C701.2 353.621 701.821 351.509 701.821 349.023V342.205C701.04 342.524 700.206 342.826 699.318 343.11C698.466 343.394 697.542 343.661 696.548 343.909C695.589 344.158 694.559 344.388 693.458 344.602C692.393 344.815 691.275 345.01 690.103 345.188C687.83 345.543 685.966 346.129 684.51 346.945C683.089 347.727 682.024 348.703 681.314 349.875C680.639 351.011 680.301 352.29 680.301 353.71C680.301 355.983 681.1 357.723 682.699 358.93C684.297 360.138 686.338 360.741 688.824 360.741ZM774.464 268.909V378H745.061V268.909H774.464ZM830.994 378H789.02V268.909H830.568C841.789 268.909 851.484 271.093 859.652 275.461C867.855 279.793 874.176 286.043 878.615 294.211C883.089 302.343 885.326 312.091 885.326 323.455C885.326 334.818 883.107 344.584 878.668 352.751C874.229 360.884 867.944 367.134 859.811 371.501C851.679 375.834 842.074 378 830.994 378ZM818.636 352.858H829.929C835.326 352.858 839.925 351.988 843.725 350.248C847.56 348.508 850.472 345.507 852.461 341.246C854.485 336.984 855.497 331.054 855.497 323.455C855.497 315.855 854.467 309.925 852.407 305.663C850.383 301.402 847.4 298.401 843.458 296.661C839.552 294.921 834.758 294.051 829.076 294.051H818.636V352.858ZM899.029 378V268.909H928.433V310.457H928.859C929.924 307.687 931.487 305.148 933.546 302.84C935.606 300.496 938.163 298.632 941.217 297.247C944.271 295.827 947.822 295.116 951.87 295.116C957.268 295.116 962.399 296.555 967.264 299.431C972.165 302.308 976.142 306.835 979.196 313.014C982.286 319.193 983.83 327.219 983.83 337.091C983.83 346.537 982.357 354.367 979.409 360.582C976.497 366.796 972.591 371.43 967.691 374.484C962.825 377.538 957.481 379.065 951.657 379.065C947.822 379.065 944.395 378.444 941.377 377.201C938.394 375.923 935.837 374.2 933.706 372.034C931.611 369.832 929.995 367.347 928.859 364.577H928.22V378H899.029ZM927.794 337.091C927.794 341.068 928.308 344.513 929.338 347.425C930.404 350.301 931.895 352.538 933.813 354.136C935.766 355.699 938.092 356.48 940.791 356.48C943.49 356.48 945.78 355.717 947.662 354.19C949.58 352.627 951.036 350.408 952.03 347.531C953.06 344.619 953.575 341.139 953.575 337.091C953.575 333.043 953.06 329.58 952.03 326.704C951.036 323.792 949.58 321.572 947.662 320.045C945.78 318.483 943.49 317.702 940.791 317.702C938.092 317.702 935.766 318.483 933.813 320.045C931.895 321.572 930.404 323.792 929.338 326.704C928.308 329.58 927.794 333.043 927.794 337.091ZM1012.12 379.705C1008 379.705 1004.46 378.266 1001.52 375.39C998.603 372.478 997.165 368.945 997.2 364.79C997.165 360.741 998.603 357.279 1001.52 354.403C1004.46 351.526 1008 350.088 1012.12 350.088C1016.02 350.088 1019.47 351.526 1022.45 354.403C1025.47 357.279 1026.99 360.741 1027.03 364.79C1026.99 367.56 1026.27 370.081 1024.85 372.354C1023.46 374.591 1021.65 376.384 1019.41 377.734C1017.18 379.048 1014.74 379.705 1012.12 379.705ZM1043.01 296.182H1072.41V380.77C1072.41 387.943 1070.9 393.554 1067.89 397.602C1064.9 401.651 1060.71 404.509 1055.31 406.178C1049.92 407.847 1043.61 408.682 1036.41 408.682C1035.34 408.682 1034.36 408.664 1033.48 408.629C1032.55 408.593 1031.54 408.54 1030.44 408.469V386.736C1031.15 386.807 1031.77 386.86 1032.3 386.896C1032.8 386.931 1033.32 386.949 1033.85 386.949C1037.36 386.949 1039.76 386.398 1041.04 385.298C1042.35 384.232 1043.01 382.51 1043.01 380.131V296.182ZM1057.71 287.659C1053.73 287.659 1050.33 286.345 1047.48 283.717C1044.64 281.089 1043.22 277.929 1043.22 274.236C1043.22 270.543 1044.64 267.382 1047.48 264.754C1050.33 262.126 1053.73 260.812 1057.71 260.812C1061.72 260.812 1065.13 262.126 1067.94 264.754C1070.78 267.382 1072.2 270.543 1072.2 274.236C1072.2 277.929 1070.78 281.089 1067.94 283.717C1065.13 286.345 1061.72 287.659 1057.71 287.659ZM1162.18 322.815H1135.12C1134.98 321.146 1134.39 319.708 1133.36 318.501C1132.33 317.293 1131 316.37 1129.37 315.731C1127.77 315.056 1126 314.719 1124.04 314.719C1121.52 314.719 1119.36 315.18 1117.54 316.104C1115.73 317.027 1114.85 318.341 1114.88 320.045C1114.85 321.253 1115.36 322.371 1116.43 323.401C1117.53 324.431 1119.64 325.23 1122.76 325.798L1139.38 328.781C1147.76 330.308 1154 332.883 1158.08 336.505C1162.2 340.092 1164.28 344.903 1164.31 350.94C1164.28 356.764 1162.54 361.825 1159.09 366.121C1155.68 370.383 1151.01 373.685 1145.08 376.029C1139.19 378.337 1132.46 379.491 1124.89 379.491C1112.39 379.491 1102.61 376.935 1095.54 371.821C1088.51 366.707 1084.59 359.96 1083.77 351.58H1112.96C1113.35 354.172 1114.63 356.178 1116.8 357.599C1119 358.984 1121.77 359.676 1125.11 359.676C1127.81 359.676 1130.03 359.214 1131.77 358.291C1133.54 357.368 1134.45 356.054 1134.48 354.349C1134.45 352.787 1133.67 351.544 1132.14 350.621C1130.65 349.697 1128.3 348.952 1125.11 348.384L1110.62 345.827C1102.27 344.371 1096.02 341.601 1091.87 337.517C1087.71 333.433 1085.65 328.178 1085.69 321.75C1085.65 316.068 1087.15 311.256 1090.16 307.315C1093.22 303.337 1097.57 300.319 1103.22 298.259C1108.9 296.164 1115.63 295.116 1123.4 295.116C1135.23 295.116 1144.55 297.567 1151.37 302.467C1158.22 307.368 1161.83 314.151 1162.18 322.815Z" fill="white"/>
</g>
<defs>
<radialGradient id="paint0_radial_1_2" cx="0" cy="0" r="1" gradientUnits="userSpaceOnUse" gradientTransform="translate(530.616 270.027) rotate(74.3568) scale(816.357 1601.86)">
<stop stop-color="#BD34FE"/>
<stop offset="1" stop-color="#49C6FF"/>
</radialGradient>
<clipPath id="clip0_1_2">
<rect width="1280" height="640" fill="white"/>
</clipPath>
</defs>
</svg>
